<svg width="20" height="20" viewBox="0 0 20 20" fill="none" xmlns="http://www.w3.org/2000/svg">
<path d="M2.49574 11.7513C2.83791 12.0935 2.83791 12.6483 2.49574 12.9905C2.15357 13.3326 1.5988 13.3326 1.25663 12.9905C0.914457 12.6483 0.914457 12.0935 1.25663 11.7513C1.5988 11.4092 2.15357 11.4092 2.49574 11.7513ZM11.7513 1.25663C11.4092 1.5988 11.4092 2.15357 11.7513 2.49574C12.0935 2.83791 12.6483 2.83791 12.9905 2.49574C13.3326 2.15357 13.3326 1.5988 12.9905 1.25663C12.6483 0.914457 12.0935 0.914457 11.7513 1.25663ZM8.60536 9.54305L11.8396 17.188C12.0779 17.7513 12.8955 17.6897 13.0466 17.097L13.8698 13.8703L17.0965 13.0471C17.6892 12.8959 17.7508 12.0784 17.1875 11.8401L9.54257 8.60584C8.95104 8.35559 8.35511 8.95152 8.60536 9.54305ZM5.85551 8.02611L2.66181 11.225C2.72867 11.2764 2.7955 11.3278 2.85724 11.3895C2.91895 11.4512 2.97552 11.5181 3.02178 11.5901L5.13037 9.4764C4.09665 11.5953 3.90637 14.0433 4.62635 16.3781L4.77037 16.2341C4.85264 16.1518 4.94524 16.085 5.04807 16.0438V16.0387C4.16866 13.061 4.9658 10.397 6.31323 8.48381L5.85551 8.02611ZM9.48121 5.13068L11.5898 3.02209C11.5178 2.97582 11.4509 2.91926 11.3892 2.85755C11.3275 2.79581 11.2761 2.72898 11.2246 2.66212L8.02581 5.86096L8.47838 6.31353C10.3915 4.9661 13.0658 4.16897 16.0435 5.04838C16.0847 4.94554 16.1515 4.85294 16.2338 4.77067L16.3778 4.62666C14.043 3.90668 11.595 4.09696 9.48121 5.13068ZM18.8754 5.13181L18.0366 4.29304C17.8705 4.12689 17.6011 4.12689 17.4349 4.29304L16.5961 5.13181C16.43 5.29797 16.43 5.56736 16.5961 5.73352L17.4349 6.57228C17.6011 6.73844 17.8705 6.73844 18.0366 6.57228L18.8754 5.73352C19.0415 5.56736 19.0415 5.29797 18.8754 5.13181ZM6.57228 17.4349L5.73351 16.5961C5.56736 16.43 5.29797 16.43 5.13181 16.5961L4.29304 17.4349C4.12688 17.6011 4.12688 17.8705 4.29304 18.0366L5.13181 18.8754C5.29797 19.0415 5.56736 19.0415 5.73351 18.8754L6.57228 18.0366C6.73844 17.8705 6.73844 17.6011 6.57228 17.4349ZM8.2622 6.82365L7.42343 5.98488C7.25728 5.81872 6.98789 5.81872 6.82173 5.98488L5.98296 6.82365C5.81681 6.9898 5.81681 7.25919 5.98296 7.42535L6.82173 8.26412C6.98789 8.43027 7.25728 8.43027 7.42343 8.26412L8.2622 7.42535C8.42836 7.25919 8.42836 6.9898 8.2622 6.82365Z" fill="#F4F4F4"/>
</svg>
